# xmcd
# Track frame offsets:
# 150
# 13544
# 25910
# 36441
# 48360
# 61050
# 75406
# 85970
# 98658
# 112198
# 126422
# 138253
# 152329
# 163672
# 177302
#
# Disc length: 2529 seconds
# Revision: 0
# Processed by: cddbd v1.5.1PL0 Copyright (c) Steve Scherf et al.
# Submitted via: VisiTrax 2.9.10.228 - For more info visit www.synapsa.com
#
DISCID=b809df0f
DTITLE=James, Sonny - CB90090
DYEAR=1900
DGENRE=Karaoke
TTITLE0=Running Bear
TTITLE1=World Of Our Own, A
TTITLE2=Behind The Tear
TTITLE3=I'll Never Find Another You
TTITLE4=Take Good Care Of Her
TTITLE5=It's The Little Things
TTITLE6=Heaven Says Hello
TTITLE7=Born To Be With You
TTITLE8=Don't Keep Me Hangin' On
TTITLE9=Endlessly
TTITLE10=Empty Arms
TTITLE11=Bright Lights, Big City
TTITLE12=You're The Only World I Know
TTITLE13=My Love
TTITLE14=Young Love
EXTD=
EXTT0=
EXTT1=
EXTT2=
EXTT3=
EXTT4=
EXTT5=
EXTT6=
EXTT7=
EXTT8=
EXTT9=
EXTT10=
EXTT11=
EXTT12=
EXTT13=
EXTT14=
PLAYORDER=
